<?xml version="1.0" standalone="no"?>
<!DOCTYPE svg PUBLIC "-//W3C//DTD SVG 20010904//EN"
 "http://www.w3.org/TR/2001/REC-SVG-20010904/DTD/svg10.dtd">
<svg version="1.0" xmlns="http://www.w3.org/2000/svg"
 width="1008.000000pt" height="1008.000000pt" viewBox="0 0 1008.000000 1008.000000"
 preserveAspectRatio="xMidYMid meet">
<metadata>
Created by potrace 1.11, written by Peter Selinger 2001-2013
</metadata>
<g transform="translate(0.000000,1008.000000) scale(0.100000,-0.100000)"
fill="#000000" stroke="none">
<path d="M1320 6360 l-1320 -1320 1320 -1320 1320 -1320 595 595 c327 327 597
595 599 595 3 0 272 -268 600 -595 l594 -595 596 596 c532 532 598 595 613
583 9 -8 279 -276 599 -596 l582 -583 1316 1316 c724 724 1316 1320 1316 1325
0 5 -592 601 -1316 1324 l-1316 1316 -573 -573 c-315 -315 -584 -584 -598
-597 l-25 -23 -597 596 -597 596 -582 -582 c-320 -321 -590 -589 -599 -596
-14 -12 -90 61 -611 582 l-596 596 -1320 -1320z m7195 -2410 c-599 -599 -1093
-1090 -1096 -1090 -4 0 -223 216 -488 481 l-481 481 610 609 609 609 -609 609
-610 609 483 484 482 485 1095 -1094 1095 -1093 -1090 -1090z m-5386 2787
l479 -478 -610 -610 -610 -609 610 -609 609 -609 -478 -479 c-263 -263 -482
-479 -486 -480 -10 -4 -2189 2174 -2183 2182 52 61 2169 2172 2178 2171 7 0
228 -216 491 -479z m2386 3 c261 -261 475 -477 475 -481 0 -3 -216 -223 -481
-487 l-480 -481 -484 484 -484 484 477 480 c262 263 483 478 490 478 7 -1 226
-216 487 -477z m-1196 -1192 c264 -265 481 -485 481 -490 0 -4 -5 -8 -10 -8
-7 0 -7 -6 -1 -18 8 -16 -59 -88 -470 -498 -264 -263 -481 -480 -483 -482 -4
-3 -986 980 -986 988 0 7 978 990 984 990 2 0 220 -217 485 -482z m2396 -8
c269 -269 491 -493 492 -497 2 -5 -219 -230 -490 -501 l-493 -493 -482 482
c-265 265 -482 485 -482 489 0 5 6 11 13 13 9 4 8 8 -3 16 -8 5 -11 14 -8 18
20 24 954 961 958 962 3 0 226 -219 495 -489z m-1202 -1234 l484 -484 -481
-481 c-265 -265 -484 -481 -487 -481 -9 0 -959 952 -959 962 0 6 946 962 957
967 1 1 219 -217 486 -483z"/>
</g>
</svg>
