<?xml version="1.0" standalone="no"?>
<!DOCTYPE svg PUBLIC "-//W3C//DTD SVG 20010904//EN"
 "http://www.w3.org/TR/2001/REC-SVG-20010904/DTD/svg10.dtd">
<svg version="1.0" xmlns="http://www.w3.org/2000/svg"
 width="1072.000000pt" height="1072.000000pt" viewBox="0 0 1072.000000 1072.000000"
 preserveAspectRatio="xMidYMid meet">
<metadata>
Created by potrace 1.11, written by Peter Selinger 2001-2013
</metadata>
<g transform="translate(0.000000,1072.000000) scale(0.100000,-0.100000)"
fill="#000000" stroke="none">
<path d="M1400 6760 l-1400 -1400 1400 -1400 1400 -1400 635 635 c349 349 639
635 645 635 6 0 296 -286 645 -635 l635 -635 640 640 640 640 640 -640 640
-640 1400 1400 1400 1400 -1400 1400 -1400 1400 -640 -640 -640 -639 -640 639
-640 640 -640 -640 -640 -640 -640 640 -640 640 -1400 -1400z m1920 400 l520
-520 -640 -640 -640 -640 635 -635 c349 -349 635 -639 635 -645 0 -5 -232
-241 -515 -525 l-515 -515 -1160 1160 -1160 1160 1157 1159 c637 638 1159
1160 1161 1160 1 1 236 -233 522 -519z m3070 -520 c0 -6 -232 -242 -515 -525
l-515 -515 -520 520 -520 520 520 520 520 520 515 -515 c283 -283 515 -519
515 -525z m3840 -1280 c0 -6 -520 -530 -1155 -1165 l-1155 -1155 -520 520
-520 520 640 640 640 640 -635 635 c-349 349 -635 639 -635 645 0 6 232 242
515 525 l515 515 1155 -1155 c635 -635 1155 -1160 1155 -1165z m-5372 262
l262 -262 -520 -520 -520 -520 -263 263 c-144 144 -378 378 -520 519 l-257
258 520 520 520 520 258 -258 c141 -141 375 -375 520 -520z m2307 253 l515
-515 -520 -520 -520 -520 -520 520 -520 520 513 514 c281 283 518 515 525 515
6 1 244 -231 527 -514z m-1285 -1275 l520 -520 -520 -520 -520 -520 -263 263
c-144 144 -378 378 -520 519 l-257 258 517 519 c285 286 519 520 521 520 1 1
236 -233 522 -519z"/>
</g>
</svg>
